<svg width="59" height="59" viewBox="0 0 59 59" fill="none" xmlns="http://www.w3.org/2000/svg">
<rect x="0.75" y="0.75" width="57.5" height="57.5" rx="28.75" fill="#FFC107"/>
<rect x="0.75" y="0.75" width="57.5" height="57.5" rx="28.75" stroke="#FFE27F" stroke-width="1.5"/>
<path d="M25.9133 33.0999L27.9133 35.0999L33.2467 29.7666" stroke="white" stroke-width="2" stroke-linecap="round" stroke-linejoin="round"/>
<path d="M26.8333 21.5001H32.1667C34.8333 21.5001 34.8333 20.1667 34.8333 18.8334C34.8333 16.1667 33.5 16.1667 32.1667 16.1667H26.8333C25.5 16.1667 24.1667 16.1667 24.1667 18.8334C24.1667 21.5001 25.5 21.5001 26.8333 21.5001Z" stroke="white" stroke-width="2" stroke-miterlimit="10" stroke-linecap="round" stroke-linejoin="round"/>
<path d="M34.8333 18.8601C39.2733 19.1001 41.5 20.7401 41.5 26.8334V34.8334C41.5 40.1668 40.1667 42.8334 33.5 42.8334H25.5C18.8333 42.8334 17.5 40.1668 17.5 34.8334V26.8334C17.5 20.7534 19.7267 19.1001 24.1667 18.8601" stroke="white" stroke-width="2" stroke-miterlimit="10" stroke-linecap="round" stroke-linejoin="round"/>
</svg>
