<svg width="52" height="52" viewBox="0 0 52 52" fill="none" xmlns="http://www.w3.org/2000/svg">
<path d="M0 26C0 11.6406 11.6406 0 26 0C40.3594 0 52 11.6406 52 26C52 40.3594 40.3594 52 26 52C11.6406 52 0 40.3594 0 26Z" fill="#FFD648"/>
<path d="M36.5 19.25V25.25C36.5001 25.3984 36.4562 25.5435 36.3738 25.667C36.2914 25.7904 36.1742 25.8867 36.0371 25.9435C35.9 26.0003 35.7491 26.0151 35.6035 25.9861C35.4579 25.9572 35.3243 25.8856 35.2194 25.7806L32.75 23.3103L27.2806 28.7806C27.211 28.8504 27.1282 28.9057 27.0372 28.9434C26.9461 28.9812 26.8486 29.0006 26.75 29.0006C26.6514 29.0006 26.5538 28.9812 26.4628 28.9434C26.3717 28.9057 26.289 28.8504 26.2194 28.7806L23 25.5603L16.7806 31.7806C16.6399 31.9214 16.449 32.0004 16.25 32.0004C16.051 32.0004 15.8601 31.9214 15.7194 31.7806C15.5786 31.6399 15.4996 31.449 15.4996 31.25C15.4996 31.051 15.5786 30.8601 15.7194 30.7194L22.4694 23.9694C22.539 23.8996 22.6217 23.8443 22.7128 23.8066C22.8038 23.7688 22.9014 23.7494 23 23.7494C23.0986 23.7494 23.1961 23.7688 23.2872 23.8066C23.3782 23.8443 23.461 23.8996 23.5306 23.9694L26.75 27.1897L31.6897 22.25L29.2194 19.7806C29.1144 19.6757 29.0428 19.542 29.0138 19.3965C28.9849 19.2509 28.9997 19.1 29.0565 18.9629C29.1133 18.8258 29.2096 18.7086 29.333 18.6262C29.4564 18.5438 29.6016 18.4999 29.75 18.5H35.75C35.9489 18.5 36.1397 18.579 36.2803 18.7197C36.421 18.8603 36.5 19.0511 36.5 19.25Z" fill="#1B1B1B"/>
</svg>
