<svg width="20" height="20" viewBox="0 0 20 20" fill="none" xmlns="http://www.w3.org/2000/svg">
<g clip-path="url(#clip0_1162_14366)">
<path fill-rule="evenodd" clip-rule="evenodd" d="M9.99683 0.00634766C7.28187 0.00634766 6.94142 0.0178556 5.87516 0.0665064C4.81111 0.115038 4.08441 0.284046 3.44853 0.531189C2.79115 0.786626 2.23365 1.12845 1.67786 1.6842C1.1221 2.24 0.780277 2.7975 0.524841 3.45488C0.277698 4.09075 0.108691 4.81746 0.0601587 5.8815C0.0115079 6.94778 0 7.28821 0 10.0033C0 12.7182 0.0115079 13.0586 0.0601587 14.1249C0.108691 15.1889 0.277698 15.9157 0.524841 16.5515C0.780277 17.2089 1.1221 17.7664 1.67786 18.3222C2.23365 18.8779 2.79115 19.2198 3.44853 19.4753C4.08441 19.7223 4.81111 19.8913 5.87516 19.9399C6.94142 19.9885 7.28187 20 9.99683 20C12.7118 20 13.0522 19.9885 14.1185 19.9399C15.1826 19.8913 15.9092 19.7223 16.5452 19.4753C17.2025 19.2198 17.76 18.8779 18.3158 18.3222C18.8716 17.7664 19.2134 17.2089 19.4689 16.5515C19.716 15.9157 19.885 15.1889 19.9335 14.1249C19.9822 13.0586 19.9937 12.7182 19.9937 10.0033C19.9937 7.28821 19.9822 6.94778 19.9335 5.8815C19.885 4.81746 19.716 4.09075 19.4689 3.45488C19.2134 2.7975 18.8716 2.24 18.3158 1.6842C17.76 1.12845 17.2025 0.786626 16.5452 0.531189C15.9092 0.284046 15.1826 0.115038 14.1185 0.0665064C13.0522 0.0178556 12.7118 0.00634766 9.99683 0.00634766ZM6.66457 10.0033C6.66457 11.8436 8.15647 13.3355 9.99683 13.3355C11.8372 13.3355 13.3292 11.8436 13.3292 10.0033C13.3292 8.16281 11.8372 6.67091 9.99683 6.67091C8.15647 6.67091 6.66457 8.16281 6.66457 10.0033ZM4.86333 10.0033C4.86333 7.16801 7.16167 4.86968 9.99683 4.86968C12.832 4.86968 15.1303 7.16801 15.1303 10.0033C15.1303 12.8383 12.832 15.1367 9.99683 15.1367C7.16167 15.1367 4.86333 12.8383 4.86333 10.0033ZM15.3332 5.86647C15.9957 5.86647 16.5328 5.3294 16.5328 4.66686C16.5328 4.00432 15.9957 3.46722 15.3332 3.46722C14.6707 3.46722 14.1336 4.00432 14.1336 4.66686C14.1336 5.3294 14.6707 5.86647 15.3332 5.86647Z" fill="white" fill-opacity="0.7"/>
</g>
<defs>
<clipPath id="clip0_1162_14366">
<rect width="20" height="20" fill="white"/>
</clipPath>
</defs>
</svg>
