<svg width="59" height="59" viewBox="0 0 59 59" fill="none" xmlns="http://www.w3.org/2000/svg">
<rect x="0.75" y="0.75" width="57.5" height="57.5" rx="28.75" fill="#FFC107"/>
<rect x="0.75" y="0.75" width="57.5" height="57.5" rx="28.75" stroke="#FFE27F" stroke-width="1.5"/>
<path d="M30.8334 42.8334H20.1667C17.5 42.8334 16.1667 41.5001 16.1667 38.8334V28.1667C16.1667 25.5001 17.5 24.1667 20.1667 24.1667H26.8334V38.8334C26.8334 41.5001 28.1667 42.8334 30.8334 42.8334Z" stroke="white" stroke-width="2" stroke-miterlimit="10" stroke-linecap="round" stroke-linejoin="round"/>
<path d="M26.98 18.8333C26.8733 19.2333 26.8334 19.6733 26.8334 20.1666V24.1666H20.1667V21.4999C20.1667 20.0333 21.3667 18.8333 22.8334 18.8333H26.98Z" stroke="white" stroke-width="2" stroke-miterlimit="10" stroke-linecap="round" stroke-linejoin="round"/>
<path d="M32.1667 24.1667V30.8334" stroke="white" stroke-width="2" stroke-miterlimit="10" stroke-linecap="round" stroke-linejoin="round"/>
<path d="M37.5 24.1667V30.8334" stroke="white" stroke-width="2" stroke-miterlimit="10" stroke-linecap="round" stroke-linejoin="round"/>
<path d="M36.1667 36.1667H33.5C32.7667 36.1667 32.1667 36.7667 32.1667 37.5001V42.8334H37.5V37.5001C37.5 36.7667 36.9 36.1667 36.1667 36.1667Z" stroke="white" stroke-width="2" stroke-miterlimit="10" stroke-linecap="round" stroke-linejoin="round"/>
<path d="M21.5 30.8333V36.1666" stroke="white" stroke-width="2" stroke-miterlimit="10" stroke-linecap="round" stroke-linejoin="round"/>
<path d="M26.8333 38.8334V20.1667C26.8333 17.5001 28.1666 16.1667 30.8333 16.1667H38.8333C41.5 16.1667 42.8333 17.5001 42.8333 20.1667V38.8334C42.8333 41.5001 41.5 42.8334 38.8333 42.8334H30.8333C28.1666 42.8334 26.8333 41.5001 26.8333 38.8334Z" stroke="white" stroke-width="2" stroke-miterlimit="10" stroke-linecap="round" stroke-linejoin="round"/>
</svg>
