<svg width="59" height="59" viewBox="0 0 59 59" fill="none" xmlns="http://www.w3.org/2000/svg">
<rect x="0.75" y="0.75" width="57.5" height="57.5" rx="28.75" fill="#FFC107"/>
<rect x="0.75" y="0.75" width="57.5" height="57.5" rx="28.75" stroke="#FFE27F" stroke-width="1.5"/>
<path d="M43.5 20.5V28.5C43.5 28.7652 43.3946 29.0196 43.2071 29.2071C43.0196 29.3946 42.7652 29.5 42.5 29.5C42.2348 29.5 41.9804 29.3946 41.7929 29.2071C41.6054 29.0196 41.5 28.7652 41.5 28.5V22.9137L31.2075 33.2075C31.1146 33.3005 31.0043 33.3742 30.8829 33.4246C30.7615 33.4749 30.6314 33.5008 30.5 33.5008C30.3686 33.5008 30.2385 33.4749 30.1171 33.4246C29.9957 33.3742 29.8854 33.3005 29.7925 33.2075L25.5 28.9137L17.2075 37.2075C17.0199 37.3951 16.7654 37.5006 16.5 37.5006C16.2346 37.5006 15.9801 37.3951 15.7925 37.2075C15.6049 37.0199 15.4994 36.7654 15.4994 36.5C15.4994 36.2346 15.6049 35.9801 15.7925 35.7925L24.7925 26.7925C24.8854 26.6995 24.9957 26.6258 25.1171 26.5754C25.2385 26.5251 25.3686 26.4992 25.5 26.4992C25.6314 26.4992 25.7615 26.5251 25.8829 26.5754C26.0043 26.6258 26.1146 26.6995 26.2075 26.7925L30.5 31.0863L40.0863 21.5H34.5C34.2348 21.5 33.9804 21.3946 33.7929 21.2071C33.6054 21.0196 33.5 20.7652 33.5 20.5C33.5 20.2348 33.6054 19.9804 33.7929 19.7929C33.9804 19.6054 34.2348 19.5 34.5 19.5H42.5C42.7652 19.5 43.0196 19.6054 43.2071 19.7929C43.3946 19.9804 43.5 20.2348 43.5 20.5Z" fill="white"/>
</svg>
