<svg width="59" height="59" viewBox="0 0 59 59" fill="none" xmlns="http://www.w3.org/2000/svg">
<rect x="0.75" y="0.75" width="57.5" height="57.5" rx="28.75" fill="#FFC107"/>
<rect x="0.75" y="0.75" width="57.5" height="57.5" rx="28.75" stroke="#FFE27F" stroke-width="1.5"/>
<path d="M29.5 16.5C26.9288 16.5 24.4154 17.2624 22.2776 18.6909C20.1398 20.1194 18.4735 22.1497 17.4896 24.5251C16.5056 26.9006 16.2482 29.5144 16.7498 32.0362C17.2514 34.5579 18.4895 36.8743 20.3076 38.6924C22.1257 40.5105 24.4421 41.7486 26.9638 42.2502C29.4856 42.7518 32.0995 42.4944 34.4749 41.5104C36.8503 40.5265 38.8807 38.8603 40.3091 36.7224C41.7376 34.5846 42.5 32.0712 42.5 29.5C42.496 26.0534 41.1251 22.7491 38.688 20.312C36.2509 17.8749 32.9466 16.504 29.5 16.5ZM40.4525 28.5H35.4738C35.25 23.9363 33.4925 20.7088 32.0513 18.8C34.2891 19.3374 36.3026 20.5617 37.8095 22.3013C39.3164 24.0408 40.241 26.2084 40.4538 28.5H40.4525ZM25.5288 30.5H33.4713C33.1825 35.7013 30.6925 38.8888 29.5 40.125C28.3063 38.8875 25.8175 35.7 25.5288 30.5ZM25.5288 28.5C25.8175 23.2987 28.3075 20.1112 29.5 18.875C30.6938 20.1163 33.1825 23.3038 33.4713 28.5H25.5288ZM26.9488 18.8C25.5075 20.7088 23.75 23.9363 23.5263 28.5H18.5463C18.759 26.2084 19.6836 24.0408 21.1905 22.3013C22.6974 20.5617 24.7109 19.3374 26.9488 18.8ZM18.5463 30.5H23.5263C23.7538 35.0637 25.5075 38.2913 26.9488 40.2C24.7109 39.6626 22.6974 38.4383 21.1905 36.6987C19.6836 34.9592 18.759 32.7916 18.5463 30.5ZM32.0463 40.2C33.4875 38.2913 35.2413 35.0637 35.4688 30.5H40.4488C40.2363 32.7909 39.3124 34.958 37.8065 36.6975C36.3006 38.437 34.2882 39.6617 32.0513 40.2H32.0463Z" fill="white"/>
</svg>
