<svg width="254" height="103" viewBox="0 0 254 103" fill="none" xmlns="http://www.w3.org/2000/svg">
<g filter="url(#filter0_d_1172_12950)">
<rect x="15.7658" y="7.69775" width="229" height="60" rx="24" transform="rotate(5.80456 15.7658 7.69775)" fill="white" shape-rendering="crispEdges"/>
<rect x="26.4906" y="20.8496" width="36" height="36" rx="12" transform="rotate(5.80456 26.4906 20.8496)" fill="#44B276"/>
<g clip-path="url(#clip0_1172_12950)">
<path d="M53.6845 38.2119L40.4913 48.9703C40.183 49.2215 39.7876 49.34 39.392 49.2998C38.9964 49.2595 38.6329 49.0639 38.3815 48.7558L32.3842 41.3613C32.1333 41.0531 32.0149 40.658 32.0551 40.2626C32.0953 39.8672 32.2908 39.5039 32.5986 39.2525L34.6536 37.5768C34.9616 37.3267 35.3561 37.2088 35.7508 37.2489C36.1455 37.289 36.5083 37.4839 36.7596 37.7908L40.1857 41.8632L50.1165 33.8669C50.4246 33.6165 50.8193 33.4985 51.2143 33.5386C51.6092 33.5788 51.9721 33.7739 52.2235 34.0811L53.8989 36.0927C54.0248 36.2456 54.1191 36.4219 54.1765 36.6114C54.2338 36.801 54.2531 37 54.2331 37.197C54.2132 37.394 54.1545 37.5851 54.0603 37.7593C53.9661 37.9335 53.8384 38.0873 53.6845 38.2119Z" fill="white"/>
</g>
<path d="M77.6224 44.4463C78.1119 44.4961 78.5477 44.4801 78.9299 44.3983C79.3181 44.3171 79.6485 44.1819 79.9211 43.9925C80.1942 43.7971 80.4086 43.5565 80.5643 43.2708C80.7206 42.9791 80.8173 42.6512 80.8543 42.2871C80.9296 41.5469 80.7416 40.9639 80.2903 40.5381C79.845 40.1129 79.1359 39.8508 78.1629 39.7519L76.3632 39.569L75.8853 44.2697L77.6224 44.4463ZM82.9443 51.7178L81.243 51.5449C80.9028 51.5103 80.6687 51.3508 80.5408 51.0664L77.8155 46.2843C77.7292 46.1247 77.6294 46.009 77.516 45.9372C77.4033 45.8594 77.2276 45.8084 76.9888 45.7841L75.7442 45.6576L75.2081 50.9314L73.301 50.7375L74.608 37.8798L78.3149 38.2566C79.1446 38.341 79.8492 38.5 80.4285 38.7338C81.0144 38.9622 81.4853 39.2544 81.8411 39.6102C82.2035 39.9606 82.4548 40.3661 82.5949 40.8267C82.7411 41.2878 82.7862 41.7929 82.7304 42.3421C82.6849 42.7898 82.5734 43.2037 82.3961 43.5837C82.2188 43.9637 81.9797 44.2982 81.6789 44.5873C81.3847 44.871 81.0351 45.1068 80.63 45.2948C80.2249 45.4828 79.7745 45.6119 79.2789 45.6822C79.5031 45.8497 79.6887 46.0706 79.8357 46.3449L82.9443 51.7178ZM90.2366 46.8413C90.2718 46.4951 90.2536 46.1706 90.1818 45.8678C90.116 45.5656 89.9986 45.2973 89.8294 45.063C89.6602 44.8287 89.4444 44.6379 89.182 44.4906C88.9195 44.3433 88.6092 44.2515 88.2511 44.2151C87.5169 44.1404 86.9163 44.2935 86.4494 44.6742C85.9885 45.0555 85.6631 45.6165 85.4732 46.3571L90.2366 46.8413ZM91.2449 51.2499C91.0046 51.4788 90.7347 51.6715 90.4353 51.828C90.1366 51.9786 89.8232 52.0945 89.4953 52.1757C89.1674 52.257 88.8306 52.3072 88.4849 52.3263C88.1452 52.346 87.8112 52.3392 87.4829 52.3059C86.8561 52.2421 86.2847 52.0785 85.7687 51.815C85.2593 51.5461 84.8282 51.1886 84.4755 50.7427C84.1294 50.2914 83.8766 49.753 83.717 49.1277C83.564 48.497 83.5275 47.7877 83.6076 46.9997C83.672 46.367 83.8302 45.789 84.0824 45.2659C84.3352 44.7367 84.6643 44.2877 85.0697 43.9188C85.4811 43.5505 85.9642 43.277 86.5191 43.0982C87.0741 42.9194 87.6828 42.8637 88.3454 42.931C88.9006 42.9875 89.4015 43.1319 89.8483 43.3642C90.3017 43.5913 90.6809 43.8952 90.9859 44.276C91.291 44.6568 91.5132 45.1106 91.6527 45.6374C91.7981 46.1648 91.8377 46.7538 91.7716 47.4045C91.7443 47.6731 91.6959 47.8521 91.6265 47.9415C91.5577 48.025 91.4427 48.0586 91.2816 48.0422L85.3183 47.436C85.281 47.981 85.3103 48.4634 85.4064 48.8833C85.503 49.2972 85.657 49.6506 85.8685 49.9435C86.0859 50.237 86.3551 50.4664 86.676 50.6317C86.997 50.797 87.3634 50.9006 87.7753 50.9424C88.1633 50.9819 88.5021 50.9711 88.7917 50.9101C89.0874 50.8497 89.3418 50.779 89.5551 50.6982C89.7749 50.612 89.9581 50.5311 90.1044 50.4555C90.2568 50.3805 90.3867 50.3485 90.4942 50.3594C90.6374 50.374 90.7424 50.4389 90.8091 50.5543L91.2449 51.2499ZM95.0975 50.6917C95.3458 51.0969 95.6265 51.3908 95.9397 51.5734C96.2588 51.7566 96.6242 51.8691 97.0361 51.911C97.836 51.9923 98.4829 51.7686 98.977 51.2398C99.4775 50.7057 99.784 49.8865 99.8962 48.7822C99.9551 48.2032 99.9544 47.7056 99.8942 47.2894C99.8406 46.8678 99.7313 46.5189 99.5664 46.2428C99.408 45.9614 99.1976 45.747 98.9352 45.5997C98.6733 45.4464 98.3693 45.3522 98.0231 45.317C97.5157 45.2654 97.0624 45.3339 96.6633 45.5225C96.2702 45.7118 95.8942 45.9992 95.5353 46.3849L95.0975 50.6917ZM95.5668 45.1849C95.7809 44.9775 96.0048 44.7922 96.2385 44.629C96.4788 44.4604 96.731 44.3232 96.995 44.2174C97.2597 44.1056 97.5359 44.0281 97.8238 43.985C98.1182 43.9365 98.4266 43.9287 98.7489 43.9615C99.2682 44.0143 99.7265 44.1634 100.124 44.4088C100.527 44.6548 100.858 44.99 101.116 45.4143C101.375 45.8386 101.555 46.3485 101.657 46.9439C101.765 47.5399 101.781 48.214 101.705 48.9661C101.636 49.6406 101.48 50.258 101.236 50.8182C100.999 51.373 100.689 51.8451 100.305 52.2343C99.9278 52.6241 99.482 52.9165 98.9676 53.1115C98.4598 53.3011 97.9015 53.365 97.2927 53.3031C96.7495 53.2479 96.293 53.111 95.9232 52.8925C95.5534 52.674 95.2326 52.3881 94.961 52.0348L94.5596 55.9834L92.8136 55.8059L94.0487 43.6555L95.0963 43.762C95.3411 43.7869 95.4815 43.9188 95.5175 44.1577L95.5668 45.1849ZM108.013 44.9304C108.682 44.9984 109.274 45.1701 109.788 45.4456C110.31 45.7157 110.738 46.0758 111.072 46.5259C111.412 46.9706 111.655 47.4928 111.799 48.0925C111.944 48.6862 111.98 49.3411 111.907 50.0575C111.834 50.7738 111.667 51.4111 111.405 51.9695C111.143 52.5279 110.801 52.9906 110.377 53.3577C109.96 53.7254 109.468 53.992 108.903 54.1577C108.344 54.3179 107.73 54.3641 107.061 54.2961C106.387 54.2276 105.789 54.0582 105.267 53.7881C104.753 53.5126 104.325 53.1525 103.984 52.7078C103.643 52.263 103.398 51.7405 103.248 51.1403C103.104 50.5406 103.068 49.8827 103.141 49.1663C103.214 48.45 103.381 47.8157 103.642 47.2633C103.91 46.7055 104.255 46.2431 104.679 45.876C105.103 45.5029 105.594 45.2363 106.153 45.076C106.719 44.9104 107.339 44.8618 108.013 44.9304ZM107.2 52.9351C108.059 53.0225 108.73 52.7983 109.213 52.2623C109.696 51.7264 109.99 50.9331 110.097 49.8825C110.204 48.832 110.075 47.9956 109.71 47.3735C109.346 46.7454 108.734 46.3877 107.874 46.3003C107.003 46.2117 106.322 46.4381 105.833 46.9794C105.35 47.5153 105.056 48.3086 104.949 49.3592C104.842 50.4098 104.971 51.2461 105.336 51.8682C105.707 52.4909 106.328 52.8466 107.2 52.9351ZM115.787 47.6295C116.141 47.0623 116.54 46.6295 116.987 46.3311C117.433 46.0327 117.946 45.913 118.525 45.9718C118.722 45.9919 118.905 46.0346 119.073 46.0999C119.248 46.1599 119.396 46.2413 119.518 46.3442L119.268 47.6486C119.21 47.8055 119.103 47.8761 118.948 47.8603C118.865 47.8518 118.741 47.8242 118.577 47.7773C118.413 47.7245 118.236 47.6884 118.045 47.669C117.764 47.6405 117.512 47.6571 117.289 47.7188C117.066 47.7745 116.86 47.8742 116.671 48.0178C116.488 48.156 116.319 48.3348 116.164 48.5543C116.009 48.7678 115.861 49.015 115.717 49.2959L115.139 54.9906L113.393 54.8131L114.317 45.716L115.32 45.8179C115.511 45.8373 115.636 45.8862 115.694 45.9645C115.759 46.0375 115.798 46.162 115.81 46.3381L115.787 47.6295ZM122.783 55.9125C122.049 55.8378 121.503 55.5742 121.145 55.1217C120.793 54.6698 120.656 54.0618 120.733 53.2977L121.287 47.8538L120.23 47.7464C120.129 47.7361 120.045 47.6974 119.98 47.6304C119.921 47.5581 119.897 47.4593 119.91 47.3339L119.982 46.6266L121.48 46.5708L122.15 43.8978C122.184 43.7988 122.237 43.7257 122.308 43.6787C122.386 43.6263 122.478 43.6055 122.586 43.6165L123.472 43.7066L123.162 46.7598L125.741 47.022L125.611 48.2934L123.033 48.0313L122.491 53.3588C122.455 53.717 122.514 53.9944 122.669 54.1911C122.83 54.3824 123.048 54.492 123.323 54.5199C123.484 54.5363 123.623 54.5294 123.741 54.4991C123.865 54.4694 123.971 54.435 124.059 54.3957C124.148 54.3505 124.225 54.31 124.289 54.2743C124.353 54.2386 124.408 54.2232 124.456 54.228C124.516 54.2341 124.559 54.2536 124.586 54.2865C124.619 54.314 124.651 54.3594 124.681 54.4227L125.114 55.3172C124.801 55.5507 124.44 55.7191 124.032 55.8223C123.623 55.9255 123.207 55.9556 122.783 55.9125ZM135.855 50.7913C136.339 50.8404 136.769 50.8208 137.146 50.7325C137.529 50.6448 137.854 50.4999 138.122 50.298C138.396 50.0907 138.612 49.8352 138.77 49.5316C138.928 49.222 139.027 48.8732 139.066 48.4852C139.146 47.7032 138.963 47.0635 138.519 46.566C138.081 46.0692 137.367 45.7704 136.376 45.6697L134.388 45.4676L133.868 50.5892L135.855 50.7913ZM136.528 44.1744C137.352 44.2581 138.058 44.4264 138.648 44.6794C139.237 44.9323 139.714 45.2551 140.078 45.648C140.443 46.0349 140.696 46.4857 140.836 47.0006C140.983 47.5161 141.026 48.0752 140.964 48.6781C140.903 49.281 140.742 49.8255 140.482 50.3117C140.222 50.7919 139.87 51.1934 139.427 51.5162C138.985 51.8391 138.448 52.0711 137.819 52.2121C137.196 52.3478 136.49 52.3756 135.703 52.2955L133.715 52.0935L133.233 56.83L131.326 56.6362L132.633 43.7784L136.528 44.1744ZM150.231 49.3669L149.307 58.464L148.259 58.3575C148.02 58.3332 147.877 58.2011 147.829 57.961L147.796 57.0349C147.578 57.2238 147.353 57.3939 147.12 57.5452C146.888 57.6964 146.643 57.8223 146.385 57.9228C146.128 58.0173 145.859 58.0834 145.578 58.1212C145.296 58.1649 144.997 58.1707 144.681 58.1385C144.179 58.0875 143.746 57.9591 143.381 57.7531C143.022 57.5477 142.729 57.2827 142.503 56.9582C142.277 56.6277 142.12 56.2438 142.032 55.8067C141.944 55.3695 141.926 54.8942 141.978 54.3809L142.567 48.5877L144.322 48.7661L143.733 54.5593C143.667 55.2099 143.764 55.7325 144.026 56.1269C144.288 56.5154 144.726 56.7409 145.341 56.8034C145.789 56.849 146.217 56.787 146.627 56.6175C147.036 56.442 147.43 56.1866 147.808 55.8511L148.485 49.1894L150.231 49.3669ZM153.717 56.6508C153.966 57.056 154.249 57.3502 154.568 57.5334C154.887 57.7166 155.244 57.8282 155.638 57.8683C156.45 57.9508 157.103 57.7247 157.598 57.19C158.098 56.6559 158.408 55.8038 158.527 54.6339C158.637 53.5534 158.523 52.7428 158.186 52.2019C157.85 51.6551 157.326 51.3456 156.616 51.2734C156.115 51.2224 155.667 51.2915 155.274 51.4807C154.887 51.6705 154.514 51.9583 154.155 52.344L153.717 56.6508ZM154.287 51.0457C154.706 50.666 155.167 50.3722 155.67 50.164C156.174 49.9559 156.73 49.8828 157.339 49.9447C157.87 49.9987 158.337 50.1517 158.74 50.4037C159.149 50.6504 159.483 50.9828 159.742 51.4012C160.002 51.8136 160.184 52.3025 160.29 52.8681C160.395 53.4336 160.412 54.0626 160.342 54.7551C160.267 55.4893 160.107 56.1484 159.861 56.7325C159.62 57.3172 159.308 57.8071 158.924 58.2023C158.546 58.5981 158.103 58.8908 157.595 59.0805C157.088 59.2641 156.533 59.3253 155.93 59.264C155.638 59.2343 155.372 59.1771 155.134 59.0925C154.894 59.0139 154.676 58.9103 154.478 58.7816C154.286 58.6535 154.111 58.5031 153.954 58.3303C153.796 58.1575 153.65 57.9647 153.515 57.752L153.357 58.5048C153.284 58.7447 153.123 58.8519 152.872 58.8264L151.744 58.7118L153.087 45.4959L154.833 45.6734L154.287 51.0457ZM164.934 46.7001L163.59 59.916L161.835 59.7376L163.179 46.5217L164.934 46.7001ZM168.835 51.2581L167.91 60.3552L166.164 60.1777L167.089 51.0806L168.835 51.2581ZM169.452 48.4803C169.436 48.6414 169.387 48.7933 169.307 48.9358C169.226 49.0724 169.124 49.1917 168.999 49.2936C168.88 49.3901 168.743 49.4636 168.587 49.5141C168.432 49.5586 168.274 49.5727 168.113 49.5563C167.951 49.5399 167.802 49.4946 167.665 49.4203C167.529 49.3401 167.409 49.2405 167.306 49.1215C167.211 48.9972 167.137 48.86 167.086 48.7101C167.041 48.5548 167.027 48.3966 167.044 48.2354C167.061 48.0683 167.106 47.9161 167.181 47.7789C167.261 47.6364 167.361 47.5168 167.479 47.4203C167.604 47.3184 167.742 47.2449 167.891 47.1998C168.041 47.1487 168.196 47.1313 168.357 47.1477C168.519 47.1641 168.671 47.2127 168.813 47.2935C168.956 47.3684 169.076 47.468 169.172 47.5923C169.274 47.7113 169.351 47.8487 169.401 48.0046C169.452 48.1546 169.469 48.3131 169.452 48.4803ZM176.567 53.6272C176.512 53.7 176.455 53.7515 176.398 53.7819C176.341 53.8063 176.271 53.8142 176.187 53.8057C176.092 53.796 175.988 53.7522 175.875 53.6744C175.768 53.5973 175.635 53.5114 175.476 53.4168C175.323 53.3228 175.139 53.2317 174.925 53.1436C174.711 53.0555 174.451 52.996 174.147 52.965C173.896 52.9395 173.663 52.949 173.447 52.9934C173.238 53.0325 173.056 53.1015 172.902 53.2003C172.747 53.2932 172.624 53.4133 172.53 53.5606C172.438 53.7019 172.382 53.8592 172.365 54.0323C172.342 54.2591 172.388 54.4538 172.504 54.6164C172.626 54.7796 172.79 54.9258 172.993 55.0551C173.203 55.185 173.441 55.3087 173.707 55.4261C173.979 55.5382 174.253 55.6566 174.53 55.7812C174.813 55.9065 175.085 56.0457 175.347 56.199C175.615 56.3469 175.848 56.5243 176.044 56.7312C176.246 56.9327 176.4 57.1685 176.505 57.4385C176.617 57.7091 176.653 58.0295 176.616 58.3996C176.573 58.8234 176.455 59.2095 176.263 59.5578C176.077 59.9008 175.822 60.1885 175.497 60.4208C175.177 60.6537 174.792 60.8226 174.341 60.9275C173.891 61.0325 173.385 61.0564 172.823 60.9994C172.197 60.9357 171.628 60.7724 171.118 60.5094C170.608 60.2465 170.191 59.9357 169.865 59.5769L170.345 58.9472C170.402 58.8685 170.468 58.8119 170.543 58.7774C170.62 58.7369 170.718 58.7228 170.837 58.7349C170.951 58.7464 171.063 58.8001 171.174 58.8958C171.285 58.9915 171.418 59.0986 171.575 59.217C171.733 59.3295 171.927 59.4397 172.157 59.5475C172.388 59.6494 172.682 59.7185 173.04 59.755C173.339 59.7853 173.602 59.7759 173.83 59.7267C174.059 59.6715 174.251 59.5886 174.407 59.4778C174.57 59.3616 174.696 59.2236 174.784 59.0638C174.873 58.9039 174.927 58.7315 174.945 58.5464C174.97 58.3076 174.921 58.1037 174.8 57.9345C174.685 57.76 174.522 57.6048 174.313 57.4689C174.11 57.3337 173.872 57.21 173.6 57.0979C173.328 56.9858 173.051 56.8672 172.768 56.7419C172.485 56.6167 172.21 56.4771 171.942 56.3233C171.674 56.1694 171.439 55.9857 171.238 55.7722C171.042 55.5594 170.89 55.3087 170.781 55.0201C170.677 54.7322 170.646 54.3912 170.686 53.9973C170.721 53.6451 170.827 53.3151 171.003 53.0073C171.185 52.7002 171.426 52.4382 171.726 52.2213C172.031 52.0051 172.394 51.846 172.814 51.744C173.241 51.6367 173.718 51.6097 174.243 51.6631C174.846 51.7244 175.379 51.8751 175.843 52.1153C176.313 52.356 176.705 52.6612 177.017 53.0306L176.567 53.6272ZM180.774 53.6387C181.195 53.2896 181.648 53.019 182.132 52.8269C182.622 52.6355 183.168 52.5704 183.771 52.6317C184.273 52.6827 184.703 52.8108 185.062 53.0162C185.427 53.2222 185.722 53.4904 185.948 53.8209C186.174 54.1455 186.332 54.5264 186.42 54.9635C186.508 55.4007 186.526 55.8759 186.474 56.3893L185.885 62.1824L184.13 62.004L184.719 56.2109C184.785 55.5603 184.687 55.0407 184.425 54.6522C184.164 54.2577 183.726 54.0292 183.111 53.9667C182.663 53.9212 182.231 53.9859 181.815 54.1607C181.406 54.3302 181.016 54.58 180.645 54.9102L179.967 61.5808L178.221 61.4033L179.564 48.1874L181.31 48.3649L180.774 53.6387ZM194.832 57.4742C194.868 57.128 194.849 56.8035 194.778 56.5007C194.712 56.1985 194.594 55.9302 194.425 55.6959C194.256 55.4616 194.04 55.2708 193.778 55.1235C193.515 54.9762 193.205 54.8843 192.847 54.8479C192.113 54.7733 191.512 54.9263 191.045 55.3071C190.584 55.6884 190.259 56.2494 190.069 56.99L194.832 57.4742ZM195.841 61.8828C195.6 62.1116 195.33 62.3043 195.031 62.4609C194.732 62.6114 194.419 62.7273 194.091 62.8086C193.763 62.8898 193.426 62.94 193.081 62.9592C192.741 62.9789 192.407 62.9721 192.079 62.9387C191.452 62.875 190.88 62.7114 190.364 62.4478C189.855 62.1789 189.424 61.8215 189.071 61.3755C188.725 60.9242 188.472 60.3859 188.313 59.7605C188.16 59.1298 188.123 58.4205 188.203 57.6326C188.268 56.9998 188.426 56.4219 188.678 55.8987C188.931 55.3696 189.26 54.9205 189.665 54.5517C190.077 54.1834 190.56 53.9098 191.115 53.731C191.67 53.5522 192.279 53.4965 192.941 53.5639C193.496 53.6203 193.997 53.7647 194.444 53.9971C194.897 54.2241 195.277 54.528 195.582 54.9088C195.887 55.2896 196.109 55.7434 196.248 56.2702C196.394 56.7976 196.433 57.3867 196.367 58.0373C196.34 58.3059 196.292 58.485 196.222 58.5744C196.153 58.6579 196.038 58.6914 195.877 58.675L189.914 58.0688C189.877 58.6138 189.906 59.0963 190.002 59.5162C190.099 59.93 190.253 60.2834 190.464 60.5763C190.682 60.8698 190.951 61.0992 191.272 61.2645C191.593 61.4298 191.959 61.5334 192.371 61.5753C192.759 61.6147 193.098 61.6039 193.387 61.5429C193.683 61.4825 193.938 61.4119 194.151 61.331C194.371 61.2448 194.554 61.1639 194.7 61.0884C194.853 61.0134 194.982 60.9814 195.09 60.9923C195.233 61.0068 195.338 61.0718 195.405 61.1871L195.841 61.8828ZM204.285 57.0872C204.037 56.682 203.753 56.3878 203.434 56.2046C203.121 56.022 202.759 55.9098 202.347 55.8679C201.547 55.7866 200.897 56.013 200.396 56.5471C199.902 57.0759 199.599 57.8924 199.487 58.9967C199.428 59.5757 199.425 60.076 199.479 60.4976C199.539 60.9138 199.648 61.2627 199.807 61.5441C199.972 61.8202 200.185 62.0349 200.447 62.1882C200.709 62.3355 201.014 62.4267 201.36 62.4619C201.867 62.5135 202.317 62.4447 202.711 62.2555C203.104 62.0663 203.482 61.7821 203.847 61.403L204.285 57.0872ZM206.683 50.9442L205.339 64.1601L204.283 64.0527C204.038 64.0278 203.898 63.896 203.862 63.6571L203.816 62.594C203.381 63.0142 202.902 63.3394 202.378 63.5696C201.861 63.7944 201.279 63.874 200.635 63.8085C200.115 63.7557 199.654 63.6063 199.251 63.3603C198.854 63.1148 198.526 62.7829 198.267 62.3646C198.008 61.9403 197.828 61.4304 197.726 60.835C197.623 60.2396 197.61 59.5659 197.687 58.8138C197.755 58.1392 197.909 57.5216 198.147 56.9608C198.385 56.3999 198.695 55.9249 199.079 55.5357C199.462 55.1465 199.907 54.857 200.415 54.6674C200.924 54.4718 201.482 54.405 202.091 54.4669C202.64 54.5227 203.097 54.6596 203.461 54.8775C203.83 55.096 204.151 55.3849 204.422 55.7442L204.928 50.7658L206.683 50.9442Z" fill="#727377"/>
</g>
<defs>
<filter id="filter0_d_1172_12950" x="-2.30235" y="-2.30225" width="257.894" height="106.853" filterUnits="userSpaceOnUse" color-interpolation-filters="sRGB">
<feFlood flood-opacity="0" result="BackgroundImageFix"/>
<feColorMatrix in="SourceAlpha" type="matrix" values="0 0 0 0 0 0 0 0 0 0 0 0 0 0 0 0 0 0 127 0" result="hardAlpha"/>
<feOffset dy="2"/>
<feGaussianBlur stdDeviation="6"/>
<feComposite in2="hardAlpha" operator="out"/>
<feColorMatrix type="matrix" values="0 0 0 0 0.113725 0 0 0 0 0.207843 0 0 0 0 0.341176 0 0 0 0.08 0"/>
<feBlend mode="normal" in2="BackgroundImageFix" result="effect1_dropShadow_1172_12950"/>
<feBlend mode="normal" in="SourceGraphic" in2="effect1_dropShadow_1172_12950" result="shape"/>
</filter>
<clipPath id="clip0_1172_12950">
<rect width="24" height="24" fill="white" transform="translate(31.8531 27.4258) rotate(5.80456)"/>
</clipPath>
</defs>
</svg>
