<svg width="18" height="18" viewBox="0 0 18 18" fill="none" xmlns="http://www.w3.org/2000/svg">
<g clip-path="url(#clip0_1162_13566)">
<path d="M17.6621 6.67603C17.5299 6.28256 17.1893 5.99569 16.7792 5.93297L12.0067 5.20369L9.86302 0.637031C9.68021 0.247781 9.28955 0 8.86036 0C8.4309 0 8.04052 0.247781 7.85771 0.637031L5.71374 5.20397L0.941209 5.93325C0.531146 5.99597 0.190553 6.28256 0.0586463 6.67631C-0.07326 7.07006 0.0263025 7.50375 0.316271 7.80131L3.80152 11.3752L2.97605 16.4312C2.90799 16.8497 3.08546 17.2704 3.43168 17.5151C3.77761 17.7598 4.23436 17.7846 4.60646 17.5792L8.86065 15.2266L13.1148 17.5792C13.2827 17.6721 13.4675 17.7176 13.6515 17.7176C13.8753 17.7176 14.0992 17.6496 14.2896 17.5151C14.6358 17.2707 14.813 16.85 14.745 16.4312L13.9195 11.3752L17.405 7.80131C17.6944 7.50375 17.794 7.07006 17.6621 6.67603Z" fill="#FFC107"/>
</g>
<defs>
<clipPath id="clip0_1162_13566">
<rect width="18" height="18" fill="white"/>
</clipPath>
</defs>
</svg>
