<svg width="64" height="64" viewBox="0 0 64 64" fill="none" xmlns="http://www.w3.org/2000/svg">
<path d="M0 32C0 14.3269 14.3269 0 32 0C49.6731 0 64 14.3269 64 32C64 49.6731 49.6731 64 32 64C14.3269 64 0 49.6731 0 32Z" fill="#44B276"/>
<path d="M46.4137 27.3635L30.3637 43.4135C29.9887 43.7883 29.4802 43.9988 28.95 43.9988C28.4198 43.9988 27.9113 43.7883 27.5362 43.4135L18.5837 34.4135C18.2093 34.0385 17.999 33.5303 17.999 33.0004C17.999 32.4705 18.2093 31.9622 18.5837 31.5873L21.0837 29.0873C21.4586 28.714 21.966 28.5044 22.495 28.5044C23.024 28.5044 23.5314 28.714 23.9062 29.0873L29 34.0273L41.095 22.081C41.4699 21.7074 41.9776 21.4976 42.5068 21.4976C43.0361 21.4976 43.5438 21.7074 43.9187 22.081L46.4125 24.5235C46.6 24.7094 46.7489 24.9305 46.8505 25.1742C46.9522 25.4178 47.0046 25.6792 47.0047 25.9433C47.0048 26.2073 46.9526 26.4687 46.8512 26.7125C46.7498 26.9562 46.6011 27.1775 46.4137 27.3635Z" fill="white"/>
</svg>
