<svg width="170" height="48" viewBox="0 0 170 48" fill="none" xmlns="http://www.w3.org/2000/svg">
<path d="M10 15C10 17.7614 7.76142 20 5 20C2.23858 20 0 17.7614 0 15C0 12.2386 2.23858 10 5 10C7.76142 10 10 12.2386 10 15Z" fill="#ADAEB0"/>
<path d="M10 33C10 35.7614 7.76142 38 5 38C2.23858 38 0 35.7614 0 33C0 30.2386 2.23858 28 5 28C7.76142 28 10 30.2386 10 33Z" fill="#ADAEB0"/>
<path d="M28 15C28 17.7614 25.7614 20 23 20C20.2386 20 18 17.7614 18 15C18 12.2386 20.2386 10 23 10C25.7614 10 28 12.2386 28 15Z" fill="#ADAEB0"/>
<path d="M28 33C28 35.7614 25.7614 38 23 38C20.2386 38 18 35.7614 18 33C18 30.2386 20.2386 28 23 28C25.7614 28 28 30.2386 28 33Z" fill="#ADAEB0"/>
<path d="M54.121 13.7759V17.8529H44.563V21.3359H53.392V25.1969H44.563V32.9999H40V13.7759H54.121Z" fill="#8A8B8E"/>
<path d="M67.1327 31.3259C65.8007 32.6579 64.0277 33.3239 61.8137 33.3239C59.5997 33.3239 57.8267 32.6579 56.4947 31.3259C55.1627 29.9939 54.4967 28.2299 54.4967 26.0339C54.4967 23.8199 55.1627 22.0469 56.4947 20.7149C57.8087 19.4009 59.5817 18.7439 61.8137 18.7439C64.0457 18.7439 65.8187 19.4009 67.1327 20.7149C68.4467 22.0289 69.1037 23.8019 69.1037 26.0339C69.1037 28.2479 68.4467 30.0119 67.1327 31.3259ZM61.8137 29.9489C62.7857 29.9489 63.5327 29.6159 64.0547 28.9499C64.5767 28.2839 64.8377 27.3119 64.8377 26.0339C64.8377 24.7559 64.5767 23.7839 64.0547 23.1179C63.5327 22.4519 62.7857 22.1189 61.8137 22.1189C60.8237 22.1189 60.0677 22.4519 59.5457 23.1179C59.0237 23.7839 58.7627 24.7559 58.7627 26.0339C58.7627 27.3119 59.0237 28.2839 59.5457 28.9499C60.0677 29.6159 60.8237 29.9489 61.8137 29.9489Z" fill="#8A8B8E"/>
<path d="M76.8021 33.3239C74.7501 33.3239 73.1211 32.7659 71.9151 31.6499C70.7271 30.5159 70.1331 28.9769 70.1331 27.0329V19.0679H74.3721V27.0869C74.3721 27.9329 74.5971 28.5899 75.0471 29.0579C75.4971 29.5079 76.0821 29.7329 76.8021 29.7329C77.5221 29.7329 78.1071 29.5079 78.5571 29.0579C79.0071 28.5899 79.2321 27.9329 79.2321 27.0869V19.0679H83.4711V27.0329C83.4711 28.9949 82.8681 30.5249 81.6621 31.6229C80.4381 32.7569 78.8181 33.3239 76.8021 33.3239Z" fill="#8A8B8E"/>
<path d="M93.46 18.8519C93.532 18.8519 93.838 18.8699 94.378 18.9059V22.7399H93.298C90.832 22.7399 89.599 23.9999 89.599 26.5199V32.9999H85.387V19.0679H89.491V21.6599C90.139 19.7879 91.462 18.8519 93.46 18.8519Z" fill="#8A8B8E"/>
<path d="M103.868 18.7439C105.74 18.7439 107.225 19.4009 108.323 20.7149C109.403 22.0289 109.943 23.8019 109.943 26.0339C109.943 28.2659 109.403 30.0389 108.323 31.3529C107.225 32.6669 105.74 33.3239 103.868 33.3239C102.086 33.3239 100.718 32.6489 99.7641 31.2989V38.2919H95.5521V19.0679H99.6561V20.9309C100.61 19.4729 102.014 18.7439 103.868 18.7439ZM102.707 29.9489C103.643 29.9489 104.372 29.6069 104.894 28.9229C105.416 28.2209 105.677 27.2219 105.677 25.9259C105.677 23.3879 104.687 22.1189 102.707 22.1189C100.709 22.1189 99.7101 23.4239 99.7101 26.0339C99.7101 28.6439 100.709 29.9489 102.707 29.9489Z" fill="#8A8B8E"/>
<path d="M123.323 31.3259C121.991 32.6579 120.218 33.3239 118.004 33.3239C115.79 33.3239 114.017 32.6579 112.685 31.3259C111.353 29.9939 110.687 28.2299 110.687 26.0339C110.687 23.8199 111.353 22.0469 112.685 20.7149C113.999 19.4009 115.772 18.7439 118.004 18.7439C120.236 18.7439 122.009 19.4009 123.323 20.7149C124.637 22.0289 125.294 23.8019 125.294 26.0339C125.294 28.2479 124.637 30.0119 123.323 31.3259ZM118.004 29.9489C118.976 29.9489 119.723 29.6159 120.245 28.9499C120.767 28.2839 121.028 27.3119 121.028 26.0339C121.028 24.7559 120.767 23.7839 120.245 23.1179C119.723 22.4519 118.976 22.1189 118.004 22.1189C117.014 22.1189 116.258 22.4519 115.736 23.1179C115.214 23.7839 114.953 24.7559 114.953 26.0339C114.953 27.3119 115.214 28.2839 115.736 28.9499C116.258 29.6159 117.014 29.9489 118.004 29.9489Z" fill="#8A8B8E"/>
<path d="M128.72 17.6099C128.108 17.6099 127.586 17.4029 127.154 16.9889C126.74 16.5569 126.533 16.0439 126.533 15.4499C126.533 14.8379 126.74 14.3249 127.154 13.9109C127.586 13.4789 128.108 13.2629 128.72 13.2629C129.314 13.2629 129.818 13.4789 130.232 13.9109C130.664 14.3249 130.88 14.8379 130.88 15.4499C130.88 16.0439 130.664 16.5569 130.232 16.9889C129.818 17.4029 129.314 17.6099 128.72 17.6099ZM130.826 32.9999H126.614V19.0679H130.826V32.9999Z" fill="#8A8B8E"/>
<path d="M155.57 19.0679V22.1459H152.897V28.6529C152.897 29.1209 153.014 29.4449 153.248 29.6249C153.482 29.7869 153.896 29.8679 154.49 29.8679H155.57V32.9999C155.066 33.0719 154.418 33.1079 153.626 33.1079C151.88 33.1079 150.62 32.8019 149.846 32.1899C149.072 31.5599 148.685 30.5339 148.685 29.1119V22.1459H146.606V19.0679H148.685V14.9369H152.897V19.0679H155.57Z" fill="#8A8B8E"/>
<path d="M162.731 33.4049C160.535 33.4049 158.897 33.0269 157.817 32.2709C156.755 31.4969 156.161 30.2639 156.035 28.5719H160.139C160.211 29.3099 160.445 29.8319 160.841 30.1379C161.255 30.4439 161.912 30.5969 162.812 30.5969C164.378 30.5969 165.161 30.1469 165.161 29.2469C165.161 28.8149 164.99 28.4909 164.648 28.2749C164.306 28.0409 163.676 27.8519 162.758 27.7079L160.949 27.4109C157.817 26.9249 156.251 25.5029 156.251 23.1449C156.251 21.7409 156.791 20.6609 157.871 19.9049C158.951 19.1309 160.499 18.7439 162.515 18.7439C166.673 18.7439 168.833 20.3369 168.995 23.5229H165.08C165.062 22.2089 164.207 21.5519 162.515 21.5519C161.093 21.5519 160.382 21.9929 160.382 22.8749C160.382 23.2709 160.544 23.5769 160.868 23.7929C161.192 24.0089 161.705 24.1709 162.407 24.2789L164.486 24.5759C166.16 24.8279 167.393 25.3049 168.185 26.0069C168.977 26.7089 169.373 27.6719 169.373 28.8959C169.373 30.3359 168.788 31.4519 167.618 32.2439C166.466 33.0179 164.837 33.4049 162.731 33.4049Z" fill="#8A8B8E"/>
<path d="M139.409 18.7439C137.357 18.7439 135.728 19.3019 134.522 20.4179C133.334 21.5519 132.74 23.0909 132.74 25.0349V32.9999H136.979V24.9809C136.979 24.1349 137.204 23.4779 137.654 23.0099C138.104 22.5599 138.689 22.3349 139.409 22.3349C140.129 22.3349 140.714 22.5599 141.164 23.0099C141.614 23.4779 141.839 24.1349 141.839 24.9809V32.9999H146.078V25.0349C146.078 23.0729 145.475 21.5429 144.269 20.4449C143.045 19.3109 141.425 18.7439 139.409 18.7439Z" fill="#8A8B8E"/>
</svg>
