<svg width="28" height="26" viewBox="0 0 28 26" fill="none" xmlns="http://www.w3.org/2000/svg">
<g clip-path="url(#clip0_817_5509)">
<path d="M2.11684 21.4414L3.35169 23.5742C3.60828 24.0233 3.97709 24.3761 4.41011 24.6327C5.65035 23.0584 6.51368 21.8503 7.00011 21.0084C7.49376 20.154 8.10046 18.8176 8.82022 16.9992C6.88034 16.7439 5.41034 16.6162 4.41022 16.6162C3.45027 16.6162 1.9802 16.7439 0 16.9992C0 17.4964 0.128297 17.9935 0.384891 18.4426L2.11684 21.4414Z" fill="#0066DA"/>
<path d="M23.5903 24.6327C24.0234 24.3761 24.3923 24.0233 24.6487 23.5743L25.1619 22.6923L27.6156 18.4426C27.8675 18.0032 28.0001 17.5057 28.0004 16.9992C26.0087 16.7439 24.5414 16.6162 23.5984 16.6162C22.5849 16.6162 21.1176 16.7439 19.1963 16.9992C19.9075 18.8276 20.5062 20.164 20.9924 21.0084C21.4827 21.8603 22.3487 23.0684 23.5903 24.6327Z" fill="#EA4335"/>
<path d="M14 8.01839C15.435 6.28531 16.4239 4.94893 16.9668 4.00925C17.404 3.25259 17.8851 2.04447 18.4101 0.384891C17.977 0.128297 17.4799 0 16.9668 0H11.0332C10.52 0 10.023 0.144375 9.58984 0.384891C10.2578 2.28823 10.8245 3.64281 11.29 4.44861C11.8045 5.33914 12.7078 6.52907 14 8.01839Z" fill="#00832D"/>
<path d="M19.1799 16.999H8.82016L4.41016 24.6325C4.84306 24.8891 5.34017 25.0174 5.85336 25.0174H22.1467C22.6599 25.0174 23.1571 24.873 23.59 24.6324L19.1799 16.999Z" fill="#2684FC"/>
<path d="M14.0001 8.01816L9.59011 0.384766C9.15698 0.641359 8.78817 0.994094 8.53158 1.44319L0.384891 15.5555C0.133028 15.9949 0.000347977 16.4924 0 16.9988H8.82022L14.0001 8.01816Z" fill="#00AC47"/>
<path d="M23.5419 8.49941L19.4684 1.44319C19.2119 0.994094 18.843 0.641359 18.41 0.384766L14 8.01827L19.1798 16.9989H27.984C27.984 16.5017 27.8557 16.0047 27.5991 15.5556L23.5419 8.49941Z" fill="#FFBA00"/>
</g>
<defs>
<clipPath id="clip0_817_5509">
<rect width="28" height="25.0469" fill="white"/>
</clipPath>
</defs>
</svg>
