<svg width="28" height="27" viewBox="0 0 28 27" fill="none" xmlns="http://www.w3.org/2000/svg">
<g clip-path="url(#clip0_817_5529)">
<path d="M19.5299 9.76758H26.7623C27.4457 9.76758 27.9996 10.3216 27.9996 11.0048V17.5926C27.9996 20.1038 25.9638 22.1398 23.4526 22.1398H23.431C20.9198 22.1401 18.8836 20.1046 18.8833 17.5932V10.4143C18.8833 10.3294 18.9 10.2453 18.9324 10.1668C18.9649 10.0883 19.0125 10.017 19.0726 9.95694C19.1326 9.89688 19.2039 9.84924 19.2824 9.81675C19.3609 9.78426 19.445 9.76755 19.5299 9.76758Z" fill="#5059C9"/>
<path d="M24.419 8.46502C26.0374 8.46502 27.3493 7.1531 27.3493 5.53476C27.3493 3.91642 26.0374 2.60449 24.419 2.60449C22.8007 2.60449 21.4888 3.91642 21.4888 5.53476C21.4888 7.1531 22.8007 8.46502 24.419 8.46502Z" fill="#5059C9"/>
<path d="M15.3024 8.46519C17.64 8.46519 19.535 6.57019 19.535 4.23259C19.535 1.895 17.64 0 15.3024 0C12.9648 0 11.0698 1.895 11.0698 4.23259C11.0698 6.57019 12.9648 8.46519 15.3024 8.46519Z" fill="#7B83EB"/>
<path d="M20.9456 9.76758H9.00716C8.33199 9.78431 7.79791 10.3446 7.81355 11.0198V18.5335C7.71927 22.5852 10.9247 25.9475 14.9763 26.0467C19.0279 25.9475 22.2333 22.5852 22.1392 18.5335V11.0198C22.1548 10.3446 21.6207 9.78431 20.9456 9.76758Z" fill="#7B83EB"/>
<path opacity="0.1" d="M15.6279 9.76758V20.2969C15.6263 20.5331 15.555 20.7635 15.423 20.9593C15.2909 21.1551 15.1039 21.3075 14.8856 21.3974C14.7434 21.4576 14.5906 21.4885 14.4362 21.4885H8.38683C8.30217 21.2736 8.22408 21.0587 8.15889 20.8374C7.93094 20.0902 7.81466 19.3134 7.81381 18.5322V11.0178C7.79817 10.3438 8.33137 9.78431 9.00545 9.76769L15.6279 9.76758Z" fill="#727377"/>
<path opacity="0.2" d="M14.9765 9.76758V20.9481C14.9765 21.1024 14.9455 21.2552 14.8853 21.3974C14.7954 21.6158 14.643 21.8028 14.4472 21.9348C14.2514 22.0669 14.021 22.1382 13.7848 22.1398H8.69286C8.58217 21.9248 8.47794 21.7099 8.38683 21.4885C8.29929 21.2757 8.22321 21.0584 8.15889 20.8374C7.93094 20.0902 7.81466 19.3134 7.81381 18.5322V11.0178C7.79817 10.3438 8.33137 9.78431 9.00545 9.76769L14.9765 9.76758Z" fill="#727377"/>
<path opacity="0.2" d="M14.9766 9.76758V19.6458C14.9716 20.3018 14.4411 20.8325 13.7849 20.8374H8.15889C7.93094 20.0902 7.81466 19.3134 7.81381 18.5322V11.0178C7.79817 10.3438 8.33137 9.78431 9.00545 9.76769L14.9766 9.76758Z" fill="#727377"/>
<path opacity="0.2" d="M14.3255 9.76758V19.6458C14.3204 20.3018 13.7898 20.8325 13.1338 20.8374H8.15889C7.93094 20.0902 7.81466 19.3134 7.81381 18.5322V11.0178C7.79817 10.3438 8.33137 9.78431 9.00545 9.76769L14.3255 9.76758Z" fill="#727377"/>
<path opacity="0.1" d="M15.628 6.40062V8.45173C15.5173 8.4583 15.413 8.46486 15.3024 8.46486C15.1917 8.46486 15.0874 8.4583 14.9767 8.45173C14.757 8.43715 14.539 8.40229 14.3256 8.34761C13.6756 8.19365 13.0712 7.88801 12.5619 7.45569C12.0526 7.02336 11.6529 6.47663 11.3954 5.8602C11.3055 5.65021 11.2357 5.43216 11.187 5.20898H14.4363C15.0933 5.2115 15.6254 5.7435 15.628 6.40062Z" fill="#727377"/>
<path opacity="0.2" d="M14.9768 7.05188V8.45188C14.757 8.4373 14.539 8.40244 14.3257 8.34776C13.6756 8.19378 13.0713 7.88814 12.562 7.45581C12.0527 7.02349 11.653 6.47677 11.3955 5.86035H13.7851C14.4423 5.86276 14.9743 6.39487 14.9768 7.05188Z" fill="#727377"/>
<path opacity="0.2" d="M14.9768 7.05188V8.45188C14.757 8.4373 14.539 8.40244 14.3257 8.34776C13.6756 8.19378 13.0713 7.88814 12.562 7.45581C12.0527 7.02349 11.653 6.47677 11.3955 5.86035H13.7851C14.4423 5.86276 14.9743 6.39487 14.9768 7.05188Z" fill="#727377"/>
<path opacity="0.2" d="M14.3258 7.05199V8.34787C13.6757 8.1939 13.0713 7.88824 12.562 7.4559C12.0527 7.02356 11.653 6.4768 11.3955 5.86035H13.1341C13.7913 5.86287 14.3233 6.39498 14.3258 7.05199Z" fill="#727377"/>
<path d="M1.19361 5.86046H13.1319C13.7912 5.86046 14.3256 6.39487 14.3256 7.05407V18.9925C14.3256 19.6517 13.7912 20.1861 13.132 20.1861H1.19361C0.534406 20.1861 0 19.6517 0 18.9925V7.05418C0 6.39476 0.534406 5.86046 1.19361 5.86046Z" fill="url(#paint0_linear_817_5529)"/>
<path d="M10.3039 10.4042H7.91731V16.9028H6.39689V10.4042H4.02148V9.14355H10.3039V10.4042Z" fill="white"/>
</g>
<defs>
<linearGradient id="paint0_linear_817_5529" x1="248.864" y1="-87.4001" x2="1183.71" y2="1531.69" gradientUnits="userSpaceOnUse">
<stop stop-color="#5A62C3"/>
<stop offset="0.5" stop-color="#4D55BD"/>
<stop offset="1" stop-color="#3940AB"/>
</linearGradient>
<clipPath id="clip0_817_5529">
<rect width="28" height="26.1406" fill="white"/>
</clipPath>
</defs>
</svg>
