<svg width="35" height="32" viewBox="0 0 35 32" fill="none" xmlns="http://www.w3.org/2000/svg">
<g clip-path="url(#clip0_1784_2312)">
<path d="M15.5244 28.1081H9.14976L8.50625 22.9528L3.25659 19.1301C3.1028 18.5313 3.02469 17.9155 3.02469 17.2973C3.02469 16.2646 3.24207 15.2434 3.66267 14.3004L12.9579 23.7084L3.92118 12.5419C4.2768 11.0931 5.06373 9.78716 6.17829 8.79775L14.2781 22.7926L7.10104 7.4707C8.02967 6.23429 9.32463 5.32238 10.801 4.86504L15.7542 22.2371L12.1347 4.14893C13.2361 3.52726 14.4782 3.20104 15.7424 3.20104C16.0096 3.20104 16.2771 3.21591 16.5425 3.24497L17.2803 22.0547L18.0179 3.24497C18.2836 3.21591 18.5511 3.20104 18.8186 3.20104C20.0821 3.20104 21.3249 3.52726 22.426 4.14893L18.8072 22.2371L23.76 4.86504C25.2364 5.32238 26.5314 6.23429 27.4603 7.4707L20.2826 22.7926L28.3827 8.79775C29.497 9.78716 30.2839 11.0934 30.6392 12.5419L21.6031 23.7084L30.898 14.3004C31.319 15.2434 31.5363 16.2646 31.5363 17.2973C31.5363 17.9155 31.4582 18.5313 31.3045 19.1301L26.0548 22.9528L25.4109 28.1081H19.037L18.0939 28.7948C17.8575 28.9667 17.5731 29.0595 17.2807 29.0595C16.9883 29.0595 16.7039 28.9667 16.4671 28.7948M15.2496 31.1351H6.48035L5.6675 24.6293L0.349056 20.7568C0.117159 19.6182 0 18.4593 0 17.2973C0 7.74919 7.7411 0 17.28 0C26.8186 0 34.56 7.74919 34.56 17.2973C34.56 18.4593 34.4432 19.6182 34.2106 20.7568L28.8922 24.6293L28.0797 31.1351H19.3104L18.8044 31.5036C18.3614 31.8263 17.8274 32 17.2797 32C16.7319 32 16.1979 31.8263 15.7549 31.5036L15.2496 31.1351Z" fill="#ED1C24"/>
<path d="M15.5244 28.108H9.14985L8.50634 22.9527L3.25668 19.13C3.10289 18.5312 3.02478 17.9154 3.02478 17.2972C3.02478 16.2645 3.24216 15.2433 3.66276 14.3003L12.958 23.7083L3.92127 12.5418C4.27689 11.093 5.06382 9.78705 6.17838 8.79764L14.2782 22.7925L7.10113 7.47059C8.02976 6.23418 9.32472 5.32227 10.8011 4.86493L15.7543 22.2369L12.1348 4.14882C13.2362 3.52715 14.4783 3.20093 15.7425 3.20093C16.0097 3.20093 16.2772 3.2158 16.5426 3.24486L17.2804 22.0546L18.0179 3.24486C18.2837 3.2158 18.5512 3.20093 18.8187 3.20093C20.0822 3.20093 21.325 3.52715 22.4261 4.14882L18.8073 22.2369L23.7601 4.86493C25.2365 5.32227 26.5315 6.23418 27.4604 7.47059L20.2827 22.7925L28.3828 8.79764C29.4971 9.78705 30.284 11.0933 30.6393 12.5418L21.6032 23.7083L30.8981 14.3003C31.3191 15.2433 31.5364 16.2645 31.5364 17.2972C31.5364 17.9154 31.4583 18.5312 31.3045 19.13L26.0549 22.9527L25.411 28.108H19.0371L18.094 28.7947C17.8576 28.9666 17.5732 29.0593 17.2808 29.0593C16.9884 29.0593 16.704 28.9666 16.4672 28.7947" fill="#FFD400"/>
</g>
<defs>
<clipPath id="clip0_1784_2312">
<rect width="35" height="32" fill="white"/>
</clipPath>
</defs>
</svg>
